<svg width="16" height="16" viewBox="0 0 16 16" fill="none" xmlns="http://www.w3.org/2000/svg">
<path d="M14.4053 3.22626C14.4047 2.80413 14.2373 2.39935 13.9395 2.1001C13.6418 1.80086 13.2379 1.63141 12.8157 1.62866L8.90372 1.60306C8.69212 1.60163 8.48234 1.64219 8.28652 1.72238C8.0907 1.80258 7.91274 1.92082 7.76293 2.07026L2.41732 7.40146C2.26846 7.54996 2.15032 7.72633 2.06966 7.92051C1.98901 8.11469 1.94741 8.32287 1.94727 8.53313C1.94712 8.7434 1.98841 8.95163 2.0688 9.14592C2.14918 9.34022 2.26707 9.51676 2.41572 9.66546L6.37493 13.6255C6.67497 13.9254 7.08186 14.0939 7.50613 14.0939C7.93039 14.0939 8.33728 13.9254 8.63732 13.6255L13.9421 8.31986C14.091 8.17104 14.209 7.9943 14.2895 7.79978C14.3699 7.60525 14.4112 7.39677 14.4109 7.18626L14.4053 3.22626ZM11.1997 5.59986C10.9876 5.59986 10.7841 5.51558 10.634 5.36555C10.484 5.21552 10.3997 5.01204 10.3997 4.79986C10.3997 4.58769 10.484 4.38421 10.634 4.23418C10.7841 4.08415 10.9876 3.99986 11.1997 3.99986C11.4119 3.99986 11.6154 4.08415 11.7654 4.23418C11.9154 4.38421 11.9997 4.58769 11.9997 4.79986C11.9997 5.01204 11.9154 5.21552 11.7654 5.36555C11.6154 5.51558 11.4119 5.59986 11.1997 5.59986Z" fill="#090A0D"/>
</svg>
